<svg width="209" height="46" viewBox="0 0 209 46" fill="none" xmlns="http://www.w3.org/2000/svg">
<g clip-path="url(#clip0_13_3)">
<path d="M23 3.15115C34.394 3.15115 43.4999 12.6593 43.5 24.2254V43.1512H34.0996C32.0817 43.1511 30.1561 42.3297 28.7441 40.8836C27.3338 39.4391 26.5498 37.4893 26.5498 35.4666V31.6776C26.5498 29.6548 27.3337 27.7051 28.7441 26.2606C30.1561 24.8145 32.0817 23.9931 34.0996 23.993H35.7969C35.677 16.6943 29.9244 10.9403 23 10.9403C16.0756 10.9403 10.323 16.6943 10.2031 23.993H11.9004C13.9183 23.9931 15.8439 24.8145 17.2559 26.2606C18.6663 27.7051 19.4502 29.6548 19.4502 31.6776V35.4666C19.4502 37.4893 18.6662 39.4391 17.2559 40.8836C15.9321 42.2394 14.1568 43.0458 12.2773 43.1414L11.9004 43.1512H2.5V24.2254C2.50005 12.6593 11.606 3.15115 23 3.15115Z" fill="url(#paint0_linear_13_3)" stroke="black" stroke-width="4"/>
<path d="M78.996 12.2512C81.9827 12.2512 84.2973 12.9019 85.94 14.2032C87.5827 15.5045 88.404 17.3285 88.404 19.6752C88.404 21.5525 87.9347 23.2059 86.996 24.6351C86.0787 26.0644 84.756 27.1738 83.028 27.9632C81.3213 28.7525 79.3373 29.1472 77.076 29.1472H73.204L72.116 34.6511H64.564L69.044 12.2512H78.996ZM77.46 23.3232C78.5053 23.3232 79.316 23.0672 79.892 22.5552C80.468 22.0219 80.756 21.2858 80.756 20.3471C80.756 18.8324 79.8173 18.0752 77.94 18.0752H75.412L74.356 23.3232H77.46ZM92.8253 34.9711C90.8839 34.9711 89.3799 34.5124 88.3133 33.5951C87.2466 32.6564 86.7133 31.3444 86.7133 29.6591C86.7133 29.1044 86.7773 28.5071 86.9053 27.8671L90.2973 10.9072H97.5293L94.2013 27.5471C94.1586 27.8458 94.1373 28.0485 94.1373 28.1552C94.1373 29.0512 94.6066 29.4991 95.5453 29.4991C96.0359 29.4991 96.4519 29.4138 96.7933 29.2431L96.0253 34.5232C94.9586 34.8219 93.8919 34.9711 92.8253 34.9711ZM117.017 29.4991C117.507 29.4991 117.923 29.4138 118.265 29.2431L117.497 34.5232C116.43 34.8219 115.363 34.9711 114.297 34.9711C112.825 34.9711 111.609 34.7045 110.649 34.1712C109.689 33.6379 109.038 32.9125 108.697 31.9952C107.267 33.9792 105.379 34.9711 103.033 34.9711C101.838 34.9711 100.686 34.6512 99.5765 34.0112C98.4672 33.3712 97.5605 32.4431 96.8565 31.2271C96.1738 29.9898 95.8325 28.5392 95.8325 26.8752C95.8325 24.9979 96.2485 23.2912 97.0805 21.7552C97.9338 20.2192 99.0752 19.0139 100.505 18.1392C101.934 17.2645 103.481 16.8272 105.145 16.8272C107.491 16.8272 109.155 17.5524 110.137 19.0031L110.521 17.1472H117.753L115.673 27.5471C115.63 27.8884 115.609 28.1018 115.609 28.1871C115.609 29.0618 116.078 29.4991 117.017 29.4991ZM105.753 29.2752C106.691 29.2752 107.449 28.9124 108.025 28.1871C108.622 27.4618 108.921 26.4912 108.921 25.2752C108.921 24.4432 108.686 23.7819 108.217 23.2912C107.769 22.7792 107.139 22.5232 106.329 22.5232C105.39 22.5232 104.622 22.8858 104.025 23.6111C103.449 24.3364 103.161 25.3072 103.161 26.5232C103.161 27.3552 103.385 28.0272 103.833 28.5392C104.302 29.0299 104.942 29.2752 105.753 29.2752ZM139.536 17.1472L136.752 31.1311C136.07 34.6084 134.715 37.1472 132.688 38.7472C130.683 40.3685 128.048 41.1791 124.784 41.1791C121.2 41.1791 118.31 40.4539 116.112 39.0032L119.184 34.0751C119.888 34.6084 120.752 35.0245 121.776 35.3232C122.822 35.6432 123.867 35.8032 124.912 35.8032C126.256 35.8032 127.259 35.5151 127.92 34.9391C128.582 34.3844 129.019 33.5419 129.232 32.4112L129.296 32.0912C128.592 32.6245 127.835 33.0298 127.024 33.3071C126.235 33.5631 125.446 33.6912 124.656 33.6912C122.779 33.6912 121.275 33.1792 120.144 32.1552C119.014 31.1312 118.448 29.6592 118.448 27.7392C118.448 27.0139 118.523 26.2778 118.672 25.5311L120.336 17.1472H127.568L126.064 24.6672C125.979 25.1792 125.936 25.5419 125.936 25.7552C125.936 26.9925 126.523 27.6111 127.696 27.6111C129.36 27.6111 130.416 26.5019 130.864 24.2832L132.304 17.1472H139.536Z" fill="black"/>
<path d="M145.836 30.8432C144.897 30.8432 144.044 30.6299 143.276 30.2032C142.508 29.7765 141.9 29.1899 141.452 28.4432C141.025 27.6965 140.812 26.8645 140.812 25.9472C140.812 24.8592 141.057 23.8885 141.548 23.0352C142.039 22.1605 142.711 21.4885 143.564 21.0192C144.417 20.5285 145.377 20.2832 146.444 20.2832C147.361 20.2832 148.204 20.4965 148.972 20.9232C149.74 21.3285 150.337 21.9045 150.764 22.6512C151.212 23.3765 151.436 24.1979 151.436 25.1152C151.436 26.2032 151.18 27.1845 150.668 28.0592C150.177 28.9339 149.505 29.6165 148.652 30.1072C147.799 30.5979 146.86 30.8432 145.836 30.8432Z" fill="black"/>
<path d="M158.044 12.2512H165.596L162.3 28.7951H172.412L171.228 34.6511H153.564L158.044 12.2512ZM174.018 17.1472H181.218L177.73 34.6511H170.53L174.018 17.1472ZM178.402 15.7392C177.165 15.7392 176.173 15.4192 175.426 14.7792C174.679 14.1179 174.306 13.2964 174.306 12.3151C174.306 11.1844 174.733 10.2458 175.586 9.49915C176.439 8.75248 177.549 8.37915 178.914 8.37915C180.151 8.37915 181.143 8.68848 181.89 9.30715C182.637 9.90448 183.01 10.6939 183.01 11.6752C183.01 12.8912 182.583 13.8725 181.73 14.6192C180.898 15.3659 179.789 15.7392 178.402 15.7392ZM185.672 34.9711C184.158 34.9711 182.696 34.8219 181.288 34.5232C179.88 34.2245 178.782 33.8405 177.992 33.3712L180.488 28.4431C181.32 28.9551 182.28 29.3498 183.368 29.6271C184.478 29.9044 185.544 30.0431 186.568 30.0431C187.998 30.0431 188.712 29.7658 188.712 29.2111C188.712 28.9764 188.52 28.8059 188.136 28.6992C187.774 28.5712 187.187 28.4538 186.376 28.3471C185.118 28.1551 184.051 27.9311 183.176 27.6751C182.302 27.3978 181.534 26.9284 180.872 26.2671C180.211 25.5844 179.88 24.6458 179.88 23.4511C179.88 21.2964 180.798 19.6538 182.632 18.5231C184.467 17.3924 186.835 16.8272 189.736 16.8272C191.016 16.8272 192.243 16.9444 193.416 17.1791C194.611 17.3924 195.667 17.7125 196.584 18.1392L194.088 23.0672C192.574 22.1925 190.835 21.7551 188.872 21.7551C188.104 21.7551 187.539 21.8405 187.176 22.0112C186.835 22.1819 186.664 22.3845 186.664 22.6192C186.664 22.8539 186.846 23.0351 187.208 23.1631C187.571 23.2698 188.19 23.3978 189.064 23.5471C190.302 23.7391 191.347 23.9739 192.2 24.2512C193.075 24.5072 193.832 24.9764 194.472 25.6591C195.134 26.3204 195.464 27.2378 195.464 28.4111C195.464 29.8191 195.027 31.0244 194.152 32.0271C193.299 33.0084 192.126 33.7444 190.632 34.2351C189.16 34.7258 187.507 34.9711 185.672 34.9711ZM202.454 27.7712C202.411 28.0272 202.39 28.1978 202.39 28.2831C202.39 29.0938 202.838 29.4991 203.734 29.4991C204.203 29.4991 204.737 29.3604 205.334 29.0831L206.166 33.9472C204.929 34.6299 203.35 34.9711 201.43 34.9711C199.446 34.9711 197.878 34.5018 196.726 33.5631C195.595 32.6031 195.03 31.2591 195.03 29.5311C195.03 28.9764 195.094 28.4005 195.222 27.8032L198.134 13.2112H205.366L204.374 18.1071H207.958L206.902 23.3871H203.318L202.454 27.7712Z" fill="black"/>
</g>
<defs>
<linearGradient id="paint0_linear_13_3" x1="23" y1="5.15115" x2="23" y2="41.1512" gradientUnits="userSpaceOnUse">
<stop offset="0.307692" stop-color="#F6BD60"/>
<stop offset="0.721154" stop-color="#F686BD"/>
<stop offset="1" stop-color="#4F66CF"/>
</linearGradient>
<clipPath id="clip0_13_3">
<rect width="208" height="45" fill="white" transform="translate(0.5 0.651154)"/>
</clipPath>
</defs>
</svg>
