<svg width="208" height="45" viewBox="0 0 208 45" fill="none" xmlns="http://www.w3.org/2000/svg">
<path d="M22.5 2.5C33.894 2.5 42.9999 12.0081 43 23.5742V42.5H33.5996C31.5817 42.4999 29.6561 41.6785 28.2441 40.2324C26.8338 38.7879 26.0498 36.8381 26.0498 34.8154V31.0264C26.0498 29.0036 26.8337 27.0539 28.2441 25.6094C29.6561 24.1633 31.5817 23.3419 33.5996 23.3418H35.2969C35.177 16.0431 29.4244 10.2891 22.5 10.2891C15.5756 10.2891 9.82303 16.0431 9.70312 23.3418H11.4004C13.4183 23.3419 15.3439 24.1633 16.7559 25.6094C18.1663 27.0539 18.9502 29.0036 18.9502 31.0264V34.8154C18.9502 36.8381 18.1662 38.7879 16.7559 40.2324C15.4321 41.5882 13.6568 42.3946 11.7773 42.4902L11.4004 42.5H2V23.5742C2.00005 12.0081 11.106 2.5 22.5 2.5Z" fill="url(#paint0_linear_11_53)" stroke="black" stroke-width="4"/>
<path d="M78.496 11.6C81.4827 11.6 83.7973 12.2507 85.44 13.552C87.0827 14.8533 87.904 16.6773 87.904 19.024C87.904 20.9013 87.4347 22.5547 86.496 23.984C85.5787 25.4133 84.256 26.5227 82.528 27.312C80.8213 28.1013 78.8373 28.496 76.576 28.496H72.704L71.616 34H64.064L68.544 11.6H78.496ZM76.96 22.672C78.0053 22.672 78.816 22.416 79.392 21.904C79.968 21.3707 80.256 20.6347 80.256 19.696C80.256 18.1813 79.3173 17.424 77.44 17.424H74.912L73.856 22.672H76.96ZM92.3253 34.32C90.3839 34.32 88.8799 33.8613 87.8133 32.944C86.7466 32.0053 86.2133 30.6933 86.2133 29.008C86.2133 28.4533 86.2773 27.856 86.4053 27.216L89.7973 10.256H97.0293L93.7013 26.896C93.6586 27.1947 93.6373 27.3973 93.6373 27.504C93.6373 28.4 94.1066 28.848 95.0453 28.848C95.5359 28.848 95.9519 28.7627 96.2933 28.592L95.5253 33.872C94.4586 34.1707 93.3919 34.32 92.3253 34.32ZM116.517 28.848C117.007 28.848 117.423 28.7627 117.765 28.592L116.997 33.872C115.93 34.1707 114.863 34.32 113.797 34.32C112.325 34.32 111.109 34.0533 110.149 33.52C109.189 32.9867 108.538 32.2613 108.197 31.344C106.767 33.328 104.879 34.32 102.533 34.32C101.338 34.32 100.186 34 99.0765 33.36C97.9672 32.72 97.0605 31.792 96.3565 30.576C95.6738 29.3387 95.3325 27.888 95.3325 26.224C95.3325 24.3467 95.7485 22.64 96.5805 21.104C97.4338 19.568 98.5752 18.3627 100.005 17.488C101.434 16.6133 102.981 16.176 104.645 16.176C106.991 16.176 108.655 16.9013 109.637 18.352L110.021 16.496H117.253L115.173 26.896C115.13 27.2373 115.109 27.4507 115.109 27.536C115.109 28.4107 115.578 28.848 116.517 28.848ZM105.253 28.624C106.191 28.624 106.949 28.2613 107.525 27.536C108.122 26.8107 108.421 25.84 108.421 24.624C108.421 23.792 108.186 23.1307 107.717 22.64C107.269 22.128 106.639 21.872 105.829 21.872C104.89 21.872 104.122 22.2347 103.525 22.96C102.949 23.6853 102.661 24.656 102.661 25.872C102.661 26.704 102.885 27.376 103.333 27.888C103.802 28.3787 104.442 28.624 105.253 28.624ZM139.036 16.496L136.252 30.48C135.57 33.9573 134.215 36.496 132.188 38.096C130.183 39.7173 127.548 40.528 124.284 40.528C120.7 40.528 117.81 39.8027 115.612 38.352L118.684 33.424C119.388 33.9573 120.252 34.3733 121.276 34.672C122.322 34.992 123.367 35.152 124.412 35.152C125.756 35.152 126.759 34.864 127.42 34.288C128.082 33.7333 128.519 32.8907 128.732 31.76L128.796 31.44C128.092 31.9733 127.335 32.3787 126.524 32.656C125.735 32.912 124.946 33.04 124.156 33.04C122.279 33.04 120.775 32.528 119.644 31.504C118.514 30.48 117.948 29.008 117.948 27.088C117.948 26.3627 118.023 25.6267 118.172 24.88L119.836 16.496H127.068L125.564 24.016C125.479 24.528 125.436 24.8907 125.436 25.104C125.436 26.3413 126.023 26.96 127.196 26.96C128.86 26.96 129.916 25.8507 130.364 23.632L131.804 16.496H139.036Z" fill="black"/>
<path d="M145.336 30.192C144.397 30.192 143.544 29.9787 142.776 29.552C142.008 29.1253 141.4 28.5387 140.952 27.792C140.525 27.0453 140.312 26.2133 140.312 25.296C140.312 24.208 140.557 23.2373 141.048 22.384C141.539 21.5093 142.211 20.8373 143.064 20.368C143.917 19.8773 144.877 19.632 145.944 19.632C146.861 19.632 147.704 19.8453 148.472 20.272C149.24 20.6773 149.837 21.2533 150.264 22C150.712 22.7253 150.936 23.5467 150.936 24.464C150.936 25.552 150.68 26.5333 150.168 27.408C149.677 28.2827 149.005 28.9653 148.152 29.456C147.299 29.9467 146.36 30.192 145.336 30.192Z" fill="black"/>
<path d="M157.544 11.6H165.096L161.8 28.144H171.912L170.728 34H153.064L157.544 11.6ZM173.518 16.496H180.718L177.23 34H170.03L173.518 16.496ZM177.902 15.088C176.665 15.088 175.673 14.768 174.926 14.128C174.179 13.4667 173.806 12.6453 173.806 11.664C173.806 10.5333 174.233 9.59467 175.086 8.848C175.939 8.10133 177.049 7.728 178.414 7.728C179.651 7.728 180.643 8.03733 181.39 8.656C182.137 9.25333 182.51 10.0427 182.51 11.024C182.51 12.24 182.083 13.2213 181.23 13.968C180.398 14.7147 179.289 15.088 177.902 15.088ZM185.172 34.32C183.658 34.32 182.196 34.1707 180.788 33.872C179.38 33.5733 178.282 33.1893 177.492 32.72L179.988 27.792C180.82 28.304 181.78 28.6987 182.868 28.976C183.978 29.2533 185.044 29.392 186.068 29.392C187.498 29.392 188.212 29.1147 188.212 28.56C188.212 28.3253 188.02 28.1547 187.636 28.048C187.274 27.92 186.687 27.8027 185.876 27.696C184.618 27.504 183.551 27.28 182.676 27.024C181.802 26.7467 181.034 26.2773 180.372 25.616C179.711 24.9333 179.38 23.9947 179.38 22.8C179.38 20.6453 180.298 19.0027 182.132 17.872C183.967 16.7413 186.335 16.176 189.236 16.176C190.516 16.176 191.743 16.2933 192.916 16.528C194.111 16.7413 195.167 17.0613 196.084 17.488L193.588 22.416C192.074 21.5413 190.335 21.104 188.372 21.104C187.604 21.104 187.039 21.1893 186.676 21.36C186.335 21.5307 186.164 21.7333 186.164 21.968C186.164 22.2027 186.346 22.384 186.708 22.512C187.071 22.6187 187.69 22.7467 188.564 22.896C189.802 23.088 190.847 23.3227 191.7 23.6C192.575 23.856 193.332 24.3253 193.972 25.008C194.634 25.6693 194.964 26.5867 194.964 27.76C194.964 29.168 194.527 30.3733 193.652 31.376C192.799 32.3573 191.626 33.0933 190.132 33.584C188.66 34.0747 187.007 34.32 185.172 34.32ZM201.954 27.12C201.911 27.376 201.89 27.5467 201.89 27.632C201.89 28.4427 202.338 28.848 203.234 28.848C203.703 28.848 204.237 28.7093 204.834 28.432L205.666 33.296C204.429 33.9787 202.85 34.32 200.93 34.32C198.946 34.32 197.378 33.8507 196.226 32.912C195.095 31.952 194.53 30.608 194.53 28.88C194.53 28.3253 194.594 27.7493 194.722 27.152L197.634 12.56H204.866L203.874 17.456H207.458L206.402 22.736H202.818L201.954 27.12Z" fill="black"/>
<defs>
<linearGradient id="paint0_linear_11_53" x1="22.5" y1="4.5" x2="22.5" y2="40.5" gradientUnits="userSpaceOnUse">
<stop offset="0.307692" stop-color="#F6BD60"/>
<stop offset="0.721154" stop-color="#F686BD"/>
<stop offset="1" stop-color="#4F66CF"/>
</linearGradient>
</defs>
</svg>
